<svg id="svg" version="1.1" xmlns="http://www.w3.org/2000/svg" xmlns:xlink="http://www.w3.org/1999/xlink" width="400" height="400" viewBox="0, 0, 400,400"><g id="svgg"><path id="path0" d="M222.001 66.374 C 213.630 68.399,209.998 81.672,215.446 90.330 C 220.312 98.063,229.800 97.197,233.881 88.646 C 239.088 77.735,231.767 64.010,222.001 66.374 M248.125 66.326 C 238.701 69.076,237.630 86.091,246.594 90.641 C 252.917 93.850,259.813 87.711,259.835 78.854 C 259.855 70.773,254.075 64.589,248.125 66.326 M271.736 73.706 C 264.864 76.161,263.241 88.064,269.038 93.488 C 274.773 98.853,282.617 93.635,282.581 84.479 C 282.553 77.023,277.236 71.742,271.736 73.706 M291.517 89.489 C 284.739 92.866,286.607 105.952,293.861 105.915 C 296.868 105.899,299.372 103.300,300.130 99.406 C 301.389 92.948,296.310 87.100,291.517 89.489 M246.354 99.095 C 233.554 100.617,226.391 107.304,223.624 120.313 C 220.742 133.864,224.733 143.707,241.155 163.542 C 253.216 178.109,256.513 184.630,256.811 194.510 C 257.209 207.667,253.268 215.892,239.612 230.412 C 224.858 246.098,220.151 261.872,226.024 275.948 C 232.745 292.056,252.293 300.003,264.622 291.640 C 270.248 287.824,274.032 282.511,281.000 268.646 C 282.382 265.896,284.000 262.755,284.595 261.667 C 292.469 247.260,302.398 211.560,305.395 186.875 C 309.334 154.440,301.386 126.187,284.345 112.040 C 274.194 103.613,257.163 97.810,246.354 99.095 M148.665 105.010 C 140.100 106.461,137.085 120.613,143.854 127.600 C 150.256 134.207,159.583 128.280,159.583 117.604 C 159.583 111.461,155.966 105.825,151.563 105.108 C 149.965 104.847,149.681 104.838,148.665 105.010 M174.375 105.027 C 164.398 106.695,160.877 123.397,168.825 131.346 C 176.381 138.901,187.142 132.042,187.114 119.688 C 187.095 110.736,181.150 103.895,174.375 105.027 M306.885 105.036 C 301.718 106.519,301.165 116.131,306.110 118.524 C 309.267 120.053,312.709 117.530,313.316 113.244 C 314.021 108.269,310.643 103.957,306.885 105.036 M123.939 112.478 C 117.703 114.474,115.248 124.267,119.400 130.593 C 122.765 135.722,129.030 135.757,132.391 130.666 C 137.841 122.409,132.024 109.892,123.939 112.478 M105.104 127.896 C 99.530 129.328,97.754 138.331,102.149 142.882 C 107.983 148.923,115.681 139.586,111.565 131.463 C 110.237 128.843,107.436 127.297,105.104 127.896 M144.909 138.255 C 126.617 140.598,110.813 151.451,102.781 167.188 C 93.156 186.044,91.181 209.243,96.670 238.982 C 102.379 269.910,111.026 294.652,123.858 316.771 C 133.513 333.414,144.900 337.908,159.192 330.717 C 180.749 319.871,182.066 292.478,162.061 271.078 C 154.533 263.024,152.618 260.762,150.009 256.838 C 144.969 249.258,142.946 242.320,143.184 233.438 C 143.440 223.954,146.518 217.522,156.897 204.792 C 163.579 196.594,165.067 194.722,166.953 192.140 C 176.879 178.552,179.360 167.545,175.306 155.083 C 171.114 142.199,160.405 136.271,144.909 138.255 M90.104 144.146 C 87.704 145.259,86.167 148.863,86.691 152.149 C 87.900 159.728,96.203 159.641,97.266 152.038 C 98.010 146.715,94.027 142.326,90.104 144.146 " stroke="none" fill="#040404" fill-rule="evenodd"></path><path id="path1" d="M0.000 200.000 L 0.000 400.000 200.000 400.000 L 400.000 400.000 400.000 200.000 L 400.000 0.000 200.000 0.000 L 0.000 0.000 0.000 200.000 M226.069 66.133 C 233.598 67.729,237.874 78.308,234.608 87.258 C 230.743 97.848,219.374 98.762,214.489 88.876 C 209.123 78.017,216.236 64.049,226.069 66.133 M251.354 66.040 C 263.828 68.080,262.092 92.513,249.538 91.615 C 237.900 90.782,237.032 68.319,248.551 66.061 C 249.832 65.810,249.940 65.809,251.354 66.040 M277.124 73.912 C 282.738 76.675,284.664 85.783,280.862 91.579 C 275.448 99.831,265.390 95.216,265.390 84.479 C 265.390 76.445,271.356 71.072,277.124 73.912 M296.141 89.373 C 300.868 91.661,301.946 99.672,298.113 104.027 C 295.170 107.371,290.321 106.453,288.149 102.142 C 284.664 95.222,290.142 86.469,296.141 89.373 M255.417 99.298 C 275.483 102.105,291.565 114.227,299.329 132.396 C 309.980 157.322,308.702 189.658,295.314 233.958 C 288.852 255.342,277.754 278.400,269.490 287.612 C 261.642 296.361,249.841 297.630,238.739 290.918 C 218.873 278.908,218.506 252.345,237.926 231.981 C 252.243 216.969,256.273 209.483,256.612 197.278 C 256.934 185.675,254.199 179.719,241.363 164.075 C 226.232 145.633,222.415 137.936,222.768 126.574 C 223.376 107.045,235.915 96.569,255.417 99.298 M153.431 105.606 C 159.988 108.834,161.917 120.066,157.030 126.559 C 150.982 134.593,140.575 129.600,140.057 118.416 C 139.622 109.018,146.663 102.274,153.431 105.606 M179.157 105.405 C 185.339 107.884,188.812 116.584,186.771 124.479 C 183.591 136.778,170.293 138.171,165.622 126.694 C 160.868 115.013,169.450 101.514,179.157 105.405 M309.706 105.099 C 314.208 106.980,315.025 114.458,311.106 117.908 C 307.074 121.457,301.657 116.881,302.527 110.661 C 303.113 106.472,306.575 103.790,309.706 105.099 M128.958 112.651 C 135.255 115.669,136.678 126.751,131.456 132.100 C 126.694 136.977,119.514 134.318,117.631 126.979 C 115.313 117.944,122.097 109.363,128.958 112.651 M108.478 128.126 C 111.735 129.551,113.729 134.742,112.621 138.905 C 110.521 146.793,101.945 146.895,99.903 139.055 C 98.117 132.199,103.145 125.790,108.478 128.126 M155.625 138.015 C 169.374 140.127,177.731 151.532,177.230 167.500 C 176.904 177.907,172.916 185.534,158.874 202.604 C 146.820 217.258,143.712 223.396,143.400 233.161 C 142.976 246.453,146.825 254.600,160.316 268.958 C 172.154 281.558,177.278 293.013,176.439 305.000 C 174.919 326.702,150.642 341.422,134.792 330.252 C 128.737 325.985,125.733 321.357,114.409 298.854 C 103.456 277.091,92.644 229.944,93.411 207.292 C 94.391 178.373,103.816 157.657,120.938 146.789 C 131.197 140.277,145.992 136.535,155.625 138.015 M93.856 144.032 C 97.063 145.525,98.518 150.438,96.883 154.252 C 94.832 159.036,89.545 159.300,87.298 154.731 C 84.438 148.916,88.858 141.704,93.856 144.032 " stroke="none" fill="#fbfbfb" fill-rule="evenodd"></path><path id="path2" d="M223.909 65.981 C 224.168 66.031,224.543 66.029,224.742 65.976 C 224.941 65.924,224.729 65.884,224.271 65.886 C 223.813 65.888,223.650 65.931,223.909 65.981 M249.635 65.977 C 249.836 66.029,250.164 66.029,250.365 65.977 C 250.565 65.925,250.401 65.882,250.000 65.882 C 249.599 65.882,249.435 65.925,249.635 65.977 M217.083 69.063 C 216.577 69.578,216.210 70.000,216.267 70.000 C 216.325 70.000,216.786 69.578,217.292 69.063 C 217.798 68.547,218.165 68.125,218.108 68.125 C 218.050 68.125,217.589 68.547,217.083 69.063 M235.690 80.938 C 235.691 81.625,235.730 81.881,235.776 81.507 C 235.822 81.132,235.821 80.570,235.774 80.257 C 235.726 79.944,235.688 80.250,235.690 80.938 M282.777 84.479 C 282.778 85.281,282.815 85.584,282.860 85.152 C 282.905 84.719,282.905 84.063,282.859 83.693 C 282.813 83.323,282.776 83.677,282.777 84.479 M248.805 98.899 C 249.122 98.947,249.590 98.946,249.847 98.897 C 250.103 98.847,249.844 98.808,249.271 98.810 C 248.698 98.811,248.488 98.852,248.805 98.899 M230.614 105.781 L 229.896 106.563 230.677 105.845 C 231.107 105.450,231.458 105.098,231.458 105.063 C 231.458 104.904,231.282 105.054,230.614 105.781 M168.750 107.813 C 168.244 108.328,167.877 108.750,167.934 108.750 C 167.991 108.750,168.452 108.328,168.958 107.813 C 169.464 107.297,169.832 106.875,169.774 106.875 C 169.717 106.875,169.256 107.297,168.750 107.813 M125.575 112.022 C 125.834 112.072,126.209 112.070,126.409 112.018 C 126.608 111.966,126.396 111.925,125.938 111.928 C 125.479 111.930,125.316 111.973,125.575 112.022 M120.511 114.427 L 119.688 115.313 120.573 114.489 C 121.060 114.036,121.458 113.638,121.458 113.604 C 121.458 113.446,121.277 113.604,120.511 114.427 M288.741 116.094 C 289.605 117.014,289.792 117.179,289.792 117.023 C 289.792 116.989,289.346 116.544,288.802 116.033 L 287.813 115.104 288.741 116.094 M164.231 119.688 C 164.232 120.375,164.271 120.631,164.318 120.257 C 164.364 119.882,164.363 119.320,164.316 119.007 C 164.268 118.694,164.230 119.000,164.231 119.688 M117.150 123.333 C 117.150 124.078,117.188 124.383,117.234 124.010 C 117.280 123.638,117.280 123.029,117.234 122.656 C 117.188 122.284,117.150 122.589,117.150 123.333 M134.632 123.333 C 134.632 123.734,134.675 123.898,134.727 123.698 C 134.779 123.497,134.779 123.169,134.727 122.969 C 134.675 122.768,134.632 122.932,134.632 123.333 M143.750 127.813 C 144.139 128.214,144.504 128.542,144.561 128.542 C 144.618 128.542,144.347 128.214,143.958 127.813 C 143.570 127.411,143.205 127.083,143.147 127.083 C 143.090 127.083,143.361 127.411,143.750 127.813 M155.822 127.865 L 155.104 128.646 155.885 127.928 C 156.613 127.260,156.762 127.083,156.603 127.083 C 156.569 127.083,156.217 127.435,155.822 127.865 M182.697 131.615 L 181.979 132.396 182.760 131.678 C 183.488 131.010,183.637 130.833,183.478 130.833 C 183.444 130.833,183.092 131.185,182.697 131.615 M120.000 131.732 C 120.000 131.768,120.305 132.072,120.677 132.409 L 121.354 133.021 120.742 132.344 C 120.172 131.713,120.000 131.571,120.000 131.732 M112.757 137.500 C 112.757 137.901,112.800 138.065,112.852 137.865 C 112.904 137.664,112.904 137.336,112.852 137.135 C 112.800 136.935,112.757 137.099,112.757 137.500 M147.344 137.852 C 147.544 137.904,147.872 137.904,148.073 137.852 C 148.273 137.800,148.109 137.757,147.708 137.757 C 147.307 137.757,147.143 137.800,147.344 137.852 M153.075 137.856 C 153.334 137.906,153.709 137.904,153.909 137.851 C 154.108 137.799,153.896 137.759,153.438 137.761 C 152.979 137.763,152.816 137.806,153.075 137.856 M105.885 144.935 C 106.086 144.988,106.414 144.988,106.615 144.935 C 106.815 144.883,106.651 144.840,106.250 144.840 C 105.849 144.840,105.685 144.883,105.885 144.935 M112.083 153.854 C 111.577 154.370,111.210 154.792,111.267 154.792 C 111.325 154.792,111.786 154.370,112.292 153.854 C 112.798 153.339,113.165 152.917,113.108 152.917 C 113.050 152.917,112.589 153.339,112.083 153.854 M87.917 155.899 C 87.917 155.934,88.221 156.239,88.594 156.576 L 89.271 157.188 88.659 156.510 C 88.089 155.879,87.917 155.738,87.917 155.899 M177.132 163.542 C 177.132 163.943,177.175 164.107,177.227 163.906 C 177.279 163.706,177.279 163.378,177.227 163.177 C 177.175 162.977,177.132 163.141,177.132 163.542 M306.518 168.021 C 306.519 168.594,306.560 168.803,306.608 168.487 C 306.656 168.170,306.654 167.701,306.605 167.445 C 306.556 167.189,306.516 167.448,306.518 168.021 M306.521 173.542 C 306.521 174.172,306.560 174.430,306.608 174.115 C 306.655 173.799,306.655 173.284,306.608 172.969 C 306.560 172.654,306.521 172.911,306.521 173.542 M256.748 195.938 C 256.748 197.427,256.781 198.009,256.821 197.231 C 256.862 196.453,256.861 195.234,256.821 194.523 C 256.780 193.811,256.747 194.448,256.748 195.938 M93.390 206.875 C 93.390 207.391,93.431 207.602,93.480 207.344 C 93.530 207.086,93.530 206.664,93.480 206.406 C 93.431 206.148,93.390 206.359,93.390 206.875 M93.398 212.396 C 93.399 213.083,93.438 213.339,93.484 212.965 C 93.531 212.591,93.530 212.028,93.482 211.715 C 93.435 211.402,93.397 211.708,93.398 212.396 M240.928 228.802 L 240.104 229.688 240.990 228.864 C 241.813 228.098,241.971 227.917,241.813 227.917 C 241.779 227.917,241.381 228.315,240.928 228.802 M237.280 232.656 L 236.563 233.438 237.344 232.720 C 238.071 232.051,238.221 231.875,238.062 231.875 C 238.027 231.875,237.675 232.227,237.280 232.656 M143.206 234.896 C 143.206 236.385,143.239 236.967,143.280 236.189 C 143.320 235.411,143.320 234.192,143.279 233.481 C 143.238 232.770,143.206 233.406,143.206 234.896 M157.083 265.690 C 157.083 265.726,157.388 266.031,157.760 266.367 L 158.438 266.979 157.826 266.302 C 157.255 265.671,157.083 265.529,157.083 265.690 M161.042 269.857 C 161.042 269.893,161.346 270.197,161.719 270.534 L 162.396 271.146 161.784 270.469 C 161.214 269.838,161.042 269.696,161.042 269.857 M268.431 288.594 L 267.188 289.896 268.490 288.652 C 269.206 287.968,269.792 287.383,269.792 287.350 C 269.792 287.196,269.586 287.384,268.431 288.594 M167.905 324.323 L 167.188 325.104 167.969 324.386 C 168.696 323.718,168.846 323.542,168.687 323.542 C 168.652 323.542,168.300 323.893,167.905 324.323 M146.719 334.102 C 146.919 334.154,147.247 334.154,147.448 334.102 C 147.648 334.050,147.484 334.007,147.083 334.007 C 146.682 334.007,146.518 334.050,146.719 334.102 " stroke="none" fill="#a0a0a0" fill-rule="evenodd"></path><path id="path3" d="M278.750 75.065 C 278.750 75.101,279.055 75.406,279.427 75.742 L 280.104 76.354 279.492 75.677 C 278.922 75.046,278.750 74.904,278.750 75.065 M240.278 78.750 C 240.278 79.609,240.315 79.961,240.360 79.531 C 240.405 79.102,240.405 78.398,240.360 77.969 C 240.315 77.539,240.278 77.891,240.278 78.750 M212.761 79.688 C 212.763 80.146,212.806 80.309,212.856 80.050 C 212.906 79.791,212.904 79.416,212.851 79.216 C 212.799 79.017,212.759 79.229,212.761 79.688 M212.761 81.979 C 212.763 82.438,212.806 82.600,212.856 82.341 C 212.906 82.082,212.904 81.707,212.851 81.508 C 212.799 81.309,212.759 81.521,212.761 81.979 M256.030 88.906 L 255.313 89.688 256.094 88.970 C 256.523 88.575,256.875 88.223,256.875 88.188 C 256.875 88.029,256.699 88.179,256.030 88.906 M243.542 88.399 C 243.542 88.434,243.846 88.739,244.219 89.076 L 244.896 89.688 244.284 89.010 C 243.714 88.379,243.542 88.238,243.542 88.399 M297.708 90.729 C 298.097 91.130,298.462 91.458,298.519 91.458 C 298.577 91.458,298.305 91.130,297.917 90.729 C 297.528 90.328,297.163 90.000,297.106 90.000 C 297.048 90.000,297.320 90.328,297.708 90.729 M249.844 91.602 C 250.044 91.654,250.372 91.654,250.573 91.602 C 250.773 91.550,250.609 91.507,250.208 91.507 C 249.807 91.507,249.643 91.550,249.844 91.602 M216.667 92.149 C 216.667 92.184,216.971 92.489,217.344 92.826 L 218.021 93.438 217.409 92.760 C 216.839 92.129,216.667 91.988,216.667 92.149 M268.542 93.229 C 268.930 93.630,269.295 93.958,269.353 93.958 C 269.410 93.958,269.139 93.630,268.750 93.229 C 268.361 92.828,267.996 92.500,267.939 92.500 C 267.882 92.500,268.153 92.828,268.542 93.229 M279.258 93.385 L 278.646 94.063 279.323 93.451 C 279.954 92.880,280.096 92.708,279.935 92.708 C 279.899 92.708,279.594 93.013,279.258 93.385 M223.698 95.772 C 223.956 95.822,224.378 95.822,224.635 95.772 C 224.893 95.722,224.682 95.682,224.167 95.682 C 223.651 95.682,223.440 95.722,223.698 95.772 M273.594 95.769 C 273.794 95.821,274.122 95.821,274.323 95.769 C 274.523 95.716,274.359 95.673,273.958 95.673 C 273.557 95.673,273.393 95.716,273.594 95.769 M155.833 107.604 C 156.222 108.005,156.587 108.333,156.644 108.333 C 156.702 108.333,156.430 108.005,156.042 107.604 C 155.653 107.203,155.288 106.875,155.231 106.875 C 155.173 106.875,155.445 107.203,155.833 107.604 M182.604 107.917 C 183.052 108.375,183.465 108.750,183.522 108.750 C 183.579 108.750,183.260 108.375,182.813 107.917 C 182.365 107.458,181.952 107.083,181.895 107.083 C 181.837 107.083,182.157 107.458,182.604 107.917 M159.653 117.708 C 159.653 118.568,159.690 118.919,159.735 118.490 C 159.780 118.060,159.780 117.357,159.735 116.927 C 159.690 116.497,159.653 116.849,159.653 117.708 M187.136 118.646 C 187.138 119.104,187.181 119.267,187.231 119.008 C 187.281 118.749,187.279 118.374,187.226 118.175 C 187.174 117.975,187.134 118.188,187.136 118.646 M187.132 120.833 C 187.132 121.234,187.175 121.398,187.227 121.198 C 187.279 120.997,187.279 120.669,187.227 120.469 C 187.175 120.268,187.132 120.432,187.132 120.833 M222.786 127.604 C 222.787 128.865,222.821 129.353,222.863 128.690 C 222.904 128.027,222.904 126.996,222.862 126.399 C 222.820 125.801,222.786 126.344,222.786 127.604 M149.538 137.862 C 150.144 137.904,151.081 137.904,151.622 137.861 C 152.162 137.818,151.667 137.784,150.521 137.784 C 149.375 137.785,148.933 137.820,149.538 137.862 M101.667 142.565 C 101.667 142.601,101.971 142.906,102.344 143.242 L 103.021 143.854 102.409 143.177 C 101.839 142.546,101.667 142.404,101.667 142.565 M169.167 144.688 C 169.555 145.089,169.920 145.417,169.978 145.417 C 170.035 145.417,169.764 145.089,169.375 144.688 C 168.986 144.286,168.621 143.958,168.564 143.958 C 168.507 143.958,168.778 144.286,169.167 144.688 M113.633 152.552 L 113.021 153.229 113.698 152.617 C 114.070 152.281,114.375 151.976,114.375 151.940 C 114.375 151.779,114.203 151.921,113.633 152.552 M110.924 155.260 L 110.313 155.938 110.990 155.326 C 111.362 154.989,111.667 154.684,111.667 154.649 C 111.667 154.488,111.495 154.629,110.924 155.260 M177.161 166.354 C 177.162 167.615,177.196 168.103,177.238 167.440 C 177.279 166.777,177.279 165.746,177.237 165.149 C 177.195 164.551,177.161 165.094,177.161 166.354 M306.298 165.625 C 306.298 166.026,306.341 166.190,306.394 165.990 C 306.446 165.789,306.446 165.461,306.394 165.260 C 306.341 165.060,306.298 165.224,306.298 165.625 M306.307 176.458 C 306.307 176.974,306.347 177.185,306.397 176.927 C 306.447 176.669,306.447 176.247,306.397 175.990 C 306.347 175.732,306.307 175.943,306.307 176.458 M93.601 215.313 C 93.603 215.885,93.643 216.095,93.691 215.778 C 93.739 215.462,93.738 214.993,93.688 214.737 C 93.639 214.480,93.600 214.740,93.601 215.313 M239.167 230.729 C 238.661 231.245,238.293 231.667,238.351 231.667 C 238.408 231.667,238.869 231.245,239.375 230.729 C 239.881 230.214,240.248 229.792,240.191 229.792 C 240.134 229.792,239.673 230.214,239.167 230.729 M158.950 267.760 C 159.813 268.680,160.000 268.846,160.000 268.689 C 160.000 268.656,159.555 268.210,159.010 267.700 L 158.021 266.771 158.950 267.760 M161.875 270.899 C 161.875 270.934,162.180 271.239,162.552 271.576 L 163.229 272.188 162.617 271.510 C 162.047 270.879,161.875 270.738,161.875 270.899 M232.813 286.250 C 233.493 286.938,234.096 287.500,234.154 287.500 C 234.211 287.500,233.701 286.938,233.021 286.250 C 232.341 285.563,231.737 285.000,231.680 285.000 C 231.622 285.000,232.132 285.563,232.813 286.250 M252.662 295.153 C 253.152 295.197,253.902 295.196,254.328 295.151 C 254.755 295.107,254.354 295.071,253.438 295.071 C 252.521 295.072,252.172 295.109,252.662 295.153 M130.833 326.732 C 130.833 326.768,131.138 327.072,131.510 327.409 L 132.188 328.021 131.576 327.344 C 131.005 326.713,130.833 326.571,130.833 326.732 " stroke="none" fill="#747474" fill-rule="evenodd"></path><path id="path4" d="M306.532 170.729 C 306.532 171.760,306.567 172.209,306.611 171.725 C 306.654 171.242,306.655 170.398,306.612 169.850 C 306.569 169.302,306.533 169.698,306.532 170.729 M93.407 209.479 C 93.407 210.510,93.442 210.959,93.486 210.475 C 93.529 209.992,93.530 209.148,93.487 208.600 C 93.444 208.052,93.408 208.448,93.407 209.479 " stroke="none" fill="#7c7c7c" fill-rule="evenodd"></path></g></svg>